<svg width="30" height="30" viewBox="0 0 30 30" fill="#F6BA17" xmlns="http://www.w3.org/2000/svg">
<rect x="1" y="1" width="28" height="28" rx="14" fill="#F6BA17" stroke="white" stroke-width="2"/>
<path d="M12.6 8H17.4L19 9.55556H22.2C22.4122 9.55556 22.6157 9.6375 22.7657 9.78336C22.9157 9.92922 23 10.1271 23 10.3333V21.2222C23 21.4285 22.9157 21.6263 22.7657 21.7722C22.6157 21.9181 22.4122 22 22.2 22H7.8C7.58783 22 7.38434 21.9181 7.23431 21.7722C7.08429 21.6263 7 21.4285 7 21.2222V10.3333C7 10.1271 7.08429 9.92922 7.23431 9.78336C7.38434 9.6375 7.58783 9.55556 7.8 9.55556H11L12.6 8ZM15 20.4444C16.273 20.4444 17.4939 19.9528 18.3941 19.0776C19.2943 18.2024 19.8 17.0155 19.8 15.7778C19.8 14.5401 19.2943 13.3531 18.3941 12.4779C17.4939 11.6028 16.273 11.1111 15 11.1111C13.727 11.1111 12.5061 11.6028 11.6059 12.4779C10.7057 13.3531 10.2 14.5401 10.2 15.7778C10.2 17.0155 10.7057 18.2024 11.6059 19.0776C12.5061 19.9528 13.727 20.4444 15 20.4444ZM15 18.8889C14.1513 18.8889 13.3374 18.5611 12.7373 17.9777C12.1371 17.3942 11.8 16.6029 11.8 15.7778C11.8 14.9527 12.1371 14.1613 12.7373 13.5779C13.3374 12.9944 14.1513 12.6667 15 12.6667C15.8487 12.6667 16.6626 12.9944 17.2627 13.5779C17.8629 14.1613 18.2 14.9527 18.2 15.7778C18.2 16.6029 17.8629 17.3942 17.2627 17.9777C16.6626 18.5611 15.8487 18.8889 15 18.8889Z" fill="white"/>
</svg>
